<svg width="65" height="25" viewBox="0 0 65 25" fill="none" xmlns="http://www.w3.org/2000/svg">
<g id="t">
<path id="Vector" fill-rule="evenodd" clip-rule="evenodd" d="M0.455078 10.0391H5.26284L8.56284 20.1066L11.8344 9.98218H16.5853V24.344H13.1999L13.5413 14.1343L10.4689 24.3724H6.91284L3.55594 13.9352L4.12491 24.4009H0.511975L0.455078 10.0391Z" fill="white"/>
<path id="Vector_2" fill-rule="evenodd" clip-rule="evenodd" d="M18.7188 9.89685H22.3032V18.3149C22.3032 18.3149 22.2417 20.1365 22.9291 20.9313C23.6165 21.726 25.1765 21.5854 25.1765 21.5854C25.1765 21.5854 26.982 21.5735 27.4808 20.5616C27.9796 19.5495 27.8222 17.9167 27.8222 17.9167V9.86841H31.3213V18.4571C31.3213 18.4571 31.3538 21.0252 30.6386 22.2679C29.9233 23.5106 27.9411 24.1045 26.855 24.2871C25.7688 24.4697 22.8765 24.4787 21.6489 23.8321C20.4214 23.1854 19.1928 22.6258 18.8894 20.5331C18.7946 19.7496 18.7756 18.5993 18.7756 18.5993L18.7188 9.89685Z" fill="white"/>
<path id="Vector_3" fill-rule="evenodd" clip-rule="evenodd" d="M45.7731 9.81152V12.9114H38.4334C38.4334 12.9114 37.3965 12.8828 36.9541 13.2242C36.5117 13.5656 36.4148 14.0746 36.4136 14.3618C36.4124 14.649 36.5236 15.1555 36.8403 15.3572C37.157 15.5589 37.5533 15.6131 37.8929 15.6131H41.7903C41.7903 15.6131 43.8082 15.6026 44.6067 16.0397C45.4051 16.4769 46.308 17.4085 46.4274 18.7415C46.5467 20.0744 46.3501 21.4779 45.9438 22.211C45.5374 22.9442 44.808 23.5248 44.18 23.7183C43.552 23.9118 42.36 24.2018 40.9084 24.2018H33.3412V21.1588H41.0222C41.0222 21.1588 42.4294 21.1242 42.6722 20.5331C42.915 19.9421 42.7717 19.2353 42.5869 18.9974C42.4021 18.7595 42.0715 18.5993 40.88 18.5993H37.6938C37.6938 18.5993 35.6814 18.631 34.7067 18.0873C33.732 17.5437 33.1516 16.971 32.8007 15.4709C32.4497 13.9709 32.93 11.9355 33.6825 11.2619C34.4351 10.5884 35.1235 9.81152 38.2912 9.81152H45.7731Z" fill="white"/>
<path id="Vector_4" fill-rule="evenodd" clip-rule="evenodd" d="M47.9355 9.75464H51.6623V24.1733H48.0209L47.9355 9.75464Z" fill="white"/>
<path id="Vector_5" fill-rule="evenodd" clip-rule="evenodd" d="M64.9187 9.69778V12.7123H59.5704C59.5704 12.7123 58.6078 12.6871 57.8066 13.3949C57.0055 14.1027 56.9026 15.6058 56.8678 16.0682C56.8331 16.5305 56.7485 19.0052 57.2092 19.7653C57.67 20.5253 58.4243 21.1019 59.7127 21.1019H64.9471V24.0596H59.7411C59.7411 24.0596 57.6234 24.158 56.498 23.5761C55.3726 22.9943 54.1259 22.058 53.5678 20.5616C53.0098 19.0652 52.9957 17.435 53.0273 16.4948C53.059 15.5545 53.2378 13.4295 54.1084 12.3142C54.9789 11.1989 55.5855 10.5186 57.0954 10.0959C58.6053 9.67325 60.9928 9.69778 60.9928 9.69778H64.9187Z" fill="white"/>
<path id="Vector_6" fill-rule="evenodd" clip-rule="evenodd" d="M0.341754 2.04753C0.389998 2.03947 6.48658 2.04753 6.48658 2.04753C6.48658 2.04753 7.35496 1.95166 8.02279 2.75851C8.34615 3.19398 8.36417 3.8392 8.36417 3.8392V7.84914H6.48658V4.03828C6.48658 4.03828 6.44818 3.697 6.05986 3.697H5.29175V7.87758H3.35727V3.697H2.21934V7.87758H0.341754C0.341754 7.87758 0.293511 2.05558 0.341754 2.04753Z" fill="white"/>
<path id="Vector_7" fill-rule="evenodd" clip-rule="evenodd" d="M9.55859 2.01929H11.4931V5.77327C11.4931 5.77327 11.4975 6.11454 11.8629 6.11454H13.0293V2.01929H14.9353V7.79246H11.7207C11.7207 7.79246 10.7996 7.80146 10.0991 7.19523C9.56037 6.73404 9.58704 5.77327 9.58704 5.77327L9.55859 2.01929Z" fill="white"/>
<path id="Vector_8" fill-rule="evenodd" clip-rule="evenodd" d="M21.3925 1.99084V3.58344H18.1494C18.1494 3.58344 17.9787 3.58356 17.9787 3.78252C17.9787 3.98147 18.2063 4.01003 18.2063 4.01003H19.9417C19.9417 4.01003 21.6486 3.94711 21.6486 5.71639C21.6486 7.48566 20.3403 7.73557 20.0839 7.73557H16.1296V6.14297H19.5434C19.5434 6.14297 19.7994 6.113 19.7994 5.88702C19.7994 5.66105 19.5718 5.63107 19.5718 5.63107H17.6658C17.6658 5.63107 16.0158 5.73594 16.0158 4.03847V3.6972C16.0158 3.6972 15.9593 1.9624 17.8934 1.9624C19.8275 1.9624 21.3925 1.99084 21.3925 1.99084Z" fill="white"/>
<path id="Vector_9" fill-rule="evenodd" clip-rule="evenodd" d="M23.1285 3.52647H22.1328V1.93387H23.1001V0H25.063V1.93387H26.5423V3.49803H25.063V5.5741C25.063 5.5741 24.9622 6.14288 25.5466 6.14288H26.5423V7.73548H24.8638C24.8638 7.73548 23.9505 7.8048 23.5268 7.13826C23.103 6.47171 23.1285 5.9252 23.1285 5.74473V3.52647Z" fill="white"/>
<path id="Vector_10" fill-rule="evenodd" clip-rule="evenodd" d="M48.9039 3.52647H47.9082V1.93387H48.8754V0H50.8384V1.93387H52.3177V3.49803H50.8384V5.5741C50.8384 5.5741 50.7376 6.14288 51.322 6.14288H52.3177V7.73548H50.6392C50.6392 7.73548 49.7259 7.8048 49.3022 7.13826C48.8784 6.47171 48.9039 5.9252 48.9039 5.74473V3.52647Z" fill="white"/>
<path id="Vector_11" fill-rule="evenodd" clip-rule="evenodd" d="M36.9825 2.81549C36.2772 1.79712 34.7351 1.87699 34.7351 1.87699H33.6825V0H31.748L31.8049 7.65016H34.7351C34.7351 7.65016 36.1452 7.63168 36.8972 6.79698C37.6492 5.96229 37.5515 4.60716 37.5515 4.60716C37.5515 4.60716 37.6878 3.83385 36.9825 2.81549ZM35.3325 5.74473C35.1465 5.90601 34.6498 6.00068 34.6498 6.00068H33.711L33.6541 3.55491H34.3937C34.3937 3.55491 34.9834 3.52434 35.2756 3.8393C35.5678 4.15427 35.5032 4.52184 35.5032 4.52184V5.06219C35.5032 5.06219 35.5185 5.58346 35.3325 5.74473Z" fill="white"/>
<path id="Vector_12" fill-rule="evenodd" clip-rule="evenodd" d="M43.2989 1.84845V3.44105H40.6532C40.6532 3.44105 40.198 3.46356 40.198 3.95295H43.2989V5.54555H40.198C40.198 5.54555 40.1244 6.02902 40.8808 6.02902H43.2989V7.62162H40.8808C40.8808 7.62162 39.5136 7.64532 38.6902 6.79688C37.8669 5.94844 38.0928 4.60706 38.0928 4.60706C38.0928 4.60706 38.0024 3.6451 38.7756 2.67319C39.5488 1.70127 40.8523 1.82001 40.8523 1.82001L43.2989 1.84845Z" fill="white"/>
<path id="Vector_13" fill-rule="evenodd" clip-rule="evenodd" d="M64.6914 1.84845V3.44105H62.0457C62.0457 3.44105 61.5906 3.46356 61.5906 3.95295H64.6914V5.54555H61.5906C61.5906 5.54555 61.517 6.02902 62.2733 6.02902H64.6914V7.62162H62.2733C62.2733 7.62162 60.9062 7.64532 60.0828 6.79688C59.2595 5.94844 59.4854 4.60706 59.4854 4.60706C59.4854 4.60706 59.395 3.6451 60.1682 2.67319C60.9414 1.70127 62.2449 1.82001 62.2449 1.82001L64.6914 1.84845Z" fill="white"/>
<path id="Vector_14" fill-rule="evenodd" clip-rule="evenodd" d="M53.2832 0.0283203H55.1323V1.96219H56.5832C57.2447 1.96219 58.603 2.25405 58.603 3.83918V7.70692H56.7254V4.03826C56.7254 4.03826 56.699 3.58323 56.1849 3.58323H55.1323V7.73536H53.2832V0.0283203Z" fill="white"/>
</g>
</svg>
