<svg width="16" height="18" viewBox="0 0 16 18" fill="none" xmlns="http://www.w3.org/2000/svg">
<path id="Vector" d="M13 12.4333C12.3667 12.4333 11.8 12.6833 11.3667 13.075L5.425 9.61662C5.46667 9.42495 5.5 9.23328 5.5 9.03329C5.5 8.83329 5.46667 8.64162 5.425 8.44995L11.3 5.02495C11.75 5.44162 12.3417 5.69995 13 5.69995C14.3833 5.69995 15.5 4.58328 15.5 3.19995C15.5 1.81662 14.3833 0.699951 13 0.699951C11.6167 0.699951 10.5 1.81662 10.5 3.19995C10.5 3.39995 10.5333 3.59162 10.575 3.78328L4.7 7.20829C4.25 6.79162 3.65833 6.53328 3 6.53328C1.61667 6.53328 0.5 7.64995 0.5 9.03329C0.5 10.4166 1.61667 11.5333 3 11.5333C3.65833 11.5333 4.25 11.275 4.7 10.8583L10.6333 14.325C10.5917 14.5 10.5667 14.6833 10.5667 14.8666C10.5667 16.2083 11.6583 17.3 13 17.3C14.3417 17.3 15.4333 16.2083 15.4333 14.8666C15.4333 13.525 14.3417 12.4333 13 12.4333Z" fill="white"/>
</svg>
