<svg xmlns="http://www.w3.org/2000/svg" viewBox="0 0 162 90">
  <title>Attachment</title>
  <g>
    <rect id="bg" fill="#eaeaea" width="162" height="90" />
    <path id="fg" fill="#ccc" d="M101.57,53.71,81.65,33.79a6.84,6.84,0,0,0-5.11-2.16,6.68,6.68,0,0,0-6.72,6.72A6.85,6.85,0,0,0,72,43.46L86,57.51a1.05,1.05,0,0,0,.75.35c.37,0,.91-.36,1.62-1.07s1.06-1.24,1.06-1.61a1.08,1.08,0,0,0-.34-.75L75.07,40.37a2.93,2.93,0,0,1-.86-2,2.22,2.22,0,0,1,2.3-2.3,3,3,0,0,1,2.06.82L98.49,56.79a6.84,6.84,0,0,1,2.16,5,4.92,4.92,0,0,1-5.08,5.07,6.84,6.84,0,0,1-5-2.16L64,38a8.83,8.83,0,0,1-.1-12.41A8.22,8.22,0,0,1,70,23.06a8.62,8.62,0,0,1,6.2,2.64L97,46.51a1.08,1.08,0,0,0,.79.34c.37,0,.9-.35,1.59-1s1-1.23,1-1.6a1,1,0,0,0-.34-.75L79.35,22.68A12.88,12.88,0,0,0,70,18.81a12.48,12.48,0,0,0-9.22,3.8A12.68,12.68,0,0,0,57,31.87a12.84,12.84,0,0,0,3.87,9.29L87.51,67.77a11.06,11.06,0,0,0,8.06,3.42A9.24,9.24,0,0,0,105,61.77a10.86,10.86,0,0,0-3.43-8.06Z" />
  </g>
</svg>
