<?xml version="1.0" encoding="UTF-8" standalone="no"?>
<svg
   xmlns:dc="http://purl.org/dc/elements/1.1/"
   xmlns:cc="http://creativecommons.org/ns#"
   xmlns:rdf="http://www.w3.org/1999/02/22-rdf-syntax-ns#"
   xmlns:svg="http://www.w3.org/2000/svg"
   xmlns="http://www.w3.org/2000/svg"
   xmlns:sodipodi="http://sodipodi.sourceforge.net/DTD/sodipodi-0.dtd"
   xmlns:inkscape="http://www.inkscape.org/namespaces/inkscape"
   inkscape:version="1.0 (4035a4fb49, 2020-05-01)"
   sodipodi:docname="puchar.svg"
   id="svg12"
   version="1.1"
   viewBox="0 0 400.22 526">
  <metadata
     id="metadata18">
    <rdf:RDF>
      <cc:Work
         rdf:about="">
        <dc:format>image/svg+xml</dc:format>
        <dc:type
           rdf:resource="http://purl.org/dc/dcmitype/StillImage" />
      </cc:Work>
    </rdf:RDF>
  </metadata>
  <defs
     id="defs16" />
  <sodipodi:namedview
     inkscape:current-layer="Warstwa_2"
     inkscape:window-maximized="1"
     inkscape:window-y="-8"
     inkscape:window-x="-8"
     inkscape:cy="263"
     inkscape:cx="200.11"
     inkscape:zoom="1.6159696"
     showgrid="false"
     id="namedview14"
     inkscape:window-height="1017"
     inkscape:window-width="1920"
     inkscape:pageshadow="2"
     inkscape:pageopacity="0"
     guidetolerance="10"
     gridtolerance="10"
     objecttolerance="10"
     borderopacity="1"
     bordercolor="#666666"
     pagecolor="#ffffff" />
  <g
     data-name="Warstwa 2"
     id="Warstwa_2">
    <g
       style="opacity:1;fill:#ffffff"
       data-name="Warstwa 2"
       id="Warstwa_2-2">
      <path
         style="fill:#ffffff"
         id="path2"
         d="M122.6,526a27.26,27.26,0,0,1-15.39-4.73,27.6,27.6,0,0,1-9.92-12,27.22,27.22,0,0,1-2.18-10.72V497l5.08-26.4A27.49,27.49,0,0,1,127.6,445h31V409.37a.62.62,0,0,0-.39-.57,105,105,0,0,1-14.6-6.67,109.13,109.13,0,0,1-39.26-37.31A136.76,136.76,0,0,1,89,331.14a170.29,170.29,0,0,1-6.87-37.75A142.39,142.39,0,0,1,11.19,220,139.86,139.86,0,0,1,0,165,115.78,115.78,0,0,1,20,99.88,117.14,117.14,0,0,1,65.43,60.31L63.61,35.05a35,35,0,0,1,35-35H301.58a35,35,0,0,1,35,35.05l0,1L334.7,60.28a115.57,115.57,0,0,1,14.08,8.15A117.11,117.11,0,0,1,391,119.67,115.18,115.18,0,0,1,400.22,165,140.73,140.73,0,0,1,376,244.08a142.36,142.36,0,0,1-58.86,49.8,169.59,169.59,0,0,1-8.6,43.14c-6.36,18.4-15.79,34.1-28,46.67A104.37,104.37,0,0,1,251,405c-2.88,1.39-5.89,2.68-8.95,3.81a.62.62,0,0,0-.41.57V445h31A27.2,27.2,0,0,1,288,449.73a27.34,27.34,0,0,1,12,20.81L305.11,497v1.48a27.26,27.26,0,0,1-4.73,15.39,27.58,27.58,0,0,1-12,9.93A27.22,27.22,0,0,1,277.62,526h-155Zm-9.49-27.28a9.5,9.5,0,0,0,.75,3.46,9.63,9.63,0,0,0,3.46,4.2A9.39,9.39,0,0,0,122.6,508h155a9.45,9.45,0,0,0,3.67-.75,9.63,9.63,0,0,0,4.2-3.46,9.38,9.38,0,0,0,1.62-5.07l-5-26,0-.65a9.33,9.33,0,0,0-4.18-7.45,9.37,9.37,0,0,0-5.28-1.62H239a15.42,15.42,0,0,1-15.4-15.4V409.33a18.69,18.69,0,0,1,12.13-17.43c2.54-.95,5-2,7.41-3.16a86.47,86.47,0,0,0,24.41-17.61c10.38-10.66,18.43-24.11,23.92-40a153.41,153.41,0,0,0,7.89-42.42,11.19,11.19,0,0,1,6.88-9.74l.43-.18A124.38,124.38,0,0,0,361,234a122.63,122.63,0,0,0,21.18-69,97.23,97.23,0,0,0-7.78-38.29,99.07,99.07,0,0,0-52.25-52.37,9.73,9.73,0,0,1-5.88-9.73L318.61,35a17.05,17.05,0,0,0-17-17H98.66a17.05,17.05,0,0,0-17,17L83.83,65.1a9.21,9.21,0,0,1-5.58,9.13,99.29,99.29,0,0,0-55.8,61.53A98,98,0,0,0,18,165a122,122,0,0,0,9.76,48,124.29,124.29,0,0,0,65.42,65.62,11.08,11.08,0,0,1,6.66,9.58,154.35,154.35,0,0,0,6.36,37.67,118.59,118.59,0,0,0,13.33,29.25,91.21,91.21,0,0,0,32.8,31.26,88.18,88.18,0,0,0,12.12,5.54,18.67,18.67,0,0,1,12.16,17.45V447.6a15.42,15.42,0,0,1-15.4,15.4h-33.6a9.37,9.37,0,0,0-3.67.75,9.52,9.52,0,0,0-5.81,8.35l0,.67ZM313.18,295.59h0ZM71.23,57.66h0ZM86.85,253.27a9,9,0,0,1-5.12-1.6,106.32,106.32,0,0,1-27.54-27.85A104.58,104.58,0,0,1,36.12,165a79.73,79.73,0,0,1,6.34-31.21,9,9,0,0,1,16.57,7A61.8,61.8,0,0,0,54.12,165a86.63,86.63,0,0,0,15,48.73A88.44,88.44,0,0,0,92,236.88a9,9,0,0,1-5.14,16.39ZM347.5,211.4a8.89,8.89,0,0,1-3.51-.72,9,9,0,0,1-4.77-11.8A86.3,86.3,0,0,0,346.1,165a61.81,61.81,0,0,0-10.69-34.78,63.23,63.23,0,0,0-17.22-17.13,9,9,0,0,1,10-15,81,81,0,0,1,22.1,22A79.85,79.85,0,0,1,364.1,165a104.15,104.15,0,0,1-8.31,40.91A9,9,0,0,1,347.5,211.4Z" />
      <path
         style="fill:#ffffff"
         id="path4"
         d="M220,129a5.8,5.8,0,0,1-3-.92l-16.41-9.28L184,128.05a5.85,5.85,0,0,1-6.48-.23,5.52,5.52,0,0,1-2.38-6.06L179,103.12l-6.47-5.75-7.63-6.91a5.55,5.55,0,0,1-1.62-6.29A5.83,5.83,0,0,1,168.39,80l18.81-2,7.86-17.26a5.75,5.75,0,0,1,5.55-3.61,5.89,5.89,0,0,1,5.47,3.61L213.86,78l18.89,2.07a6,6,0,0,1,3.39,10.35L222,103.2l3.86,18.56a5.71,5.71,0,0,1-1.24,4.91A5.85,5.85,0,0,1,220,129Z" />
      <path
         style="fill:#ffffff"
         id="path6"
         d="M220,230a5.8,5.8,0,0,1-3-.92l-16.41-9.28L184,229.05a5.85,5.85,0,0,1-6.48-.23,5.52,5.52,0,0,1-2.38-6.06L179,204.12l-6.47-5.75-7.63-6.91a5.55,5.55,0,0,1-1.62-6.29,5.83,5.83,0,0,1,5.08-4.14l18.81-2,7.86-17.26a5.75,5.75,0,0,1,5.55-3.61,5.89,5.89,0,0,1,5.47,3.61L213.86,179l18.89,2.07a6,6,0,0,1,3.39,10.35L222,204.2l3.86,18.56a5.71,5.71,0,0,1-1.24,4.91A5.85,5.85,0,0,1,220,230Z" />
      <path
         style="fill:#ffffff"
         id="path8"
         d="M220,327a5.8,5.8,0,0,1-3-.92l-16.41-9.28L184,326.05a5.85,5.85,0,0,1-6.48-.23,5.52,5.52,0,0,1-2.38-6.06L179,301.12l-6.47-5.75-7.63-6.91a5.55,5.55,0,0,1-1.62-6.29,5.83,5.83,0,0,1,5.08-4.14l18.81-2,7.86-17.26a5.75,5.75,0,0,1,5.55-3.61,5.89,5.89,0,0,1,5.47,3.61L213.86,276l18.89,2.07a6,6,0,0,1,3.39,10.35L222,301.2l3.86,18.56a5.71,5.71,0,0,1-1.24,4.91A5.85,5.85,0,0,1,220,327Z" />
    </g>
  </g>
</svg>
