<svg xmlns="http://www.w3.org/2000/svg" xml:space="preserve" viewBox="0 0 297 297" width="297" height="297">
  <path d="M191.1 112.7h26.8c18.4 0 36.7-.2 55.1.1 15.7.2 25.8 11.7 23.3 26.3-1.7 10-9.3 16.4-22.3 18.3 11.8 5.6 18 14.1 15.3 27-2 9.8-9.5 15.4-20.6 17.1 3.5 3.2 7.9 6.4 11.1 10.6 3.5 4.4 4.2 10 3 15.7-2.2 10.3-9.2 16.2-22.3 18.2 1.8.9 3.1 1.6 4.4 2.3 8.8 5 13 14.2 11.1 24.1-1.8 9.1-9.7 17.1-19.4 17.2-37.5.2-75.1.3-112.6-.5-19.9-.4-37.9-9.3-56.2-16.1-12.9-4.8-12.9-4.9-12.9-18.7 0-43.5.1-86.9-.1-130.4 0-4.2 1.2-6.9 4.5-9.7 19.2-16.2 38-32.8 57.2-49 12.3-10.4 18.5-23.2 18-39.3-.1-4-.1-8 0-12 .1-5.7 1.1-6.5 6.8-6.4 21.6.4 41.3 19.7 42.7 41.7.7 11.7-.2 23-4.1 34.2-3.3 9.2-5.8 18.9-8.8 29.3zM55.4 284.2H.3V98.8h55.1v185.4z"/>
</svg>